PathFileType	4	(X/Y/Z)	2014001\dynamic\2014001_C1_01.trc
DataRate	CameraRate	NumFrames	NumMarkers	Units	OrigDataRate	OrigDataStartFrame	OrigNumFrames
100.000000	100.000000	4	52	mm	100.000000	193	387
Frame#	Time	L_IAS			L_IPS			R_IPS			R_IAS			L_FTC			L_FLE			L_FME			L_FAX			L_TTC			L_FAL			L_TAM			L_FCC			L_FM1			L_FM2			L_FM5			R_FTC			R_FLE			R_FME			R_FAX			R_TTC			R_FAL			R_TAM			R_FCC			R_FM1			R_FM2			R_FM5			CV7			TV10			SXS			SJN			L_SIA			L_SRS			L_SAA			L_SAE			L_HLE			L_HME			L_UOA			L_RSP			L_UHE			L_HM2			L_HM5			R_SIA			R_SRS			R_SAA			R_SAE			R_HLE			R_HME			R_UOA			R_RSP			R_UHE			R_HM2			R_HM5			
		X1	Y1	Z1	X2	Y2	Z2	X3	Y3	Z3	X4	Y4	Z4	X5	Y5	Z5	X6	Y6	Z6	X7	Y7	Z7	X8	Y8	Z8	X9	Y9	Z9	X10	Y10	Z10	X11	Y11	Z11	X12	Y12	Z12	X13	Y13	Z13	X14	Y14	Z14	X15	Y15	Z15	X16	Y16	Z16	X17	Y17	Z17	X18	Y18	Z18	X19	Y19	Z19	X20	Y20	Z20	X21	Y21	Z21	X22	Y22	Z22	X23	Y23	Z23	X24	Y24	Z24	X25	Y25	Z25	X26	Y26	Z26	X27	Y27	Z27	X28	Y28	Z28	X29	Y29	Z29	X30	Y30	Z30	X31	Y31	Z31	X32	Y32	Z32	X33	Y33	Z33	X34	Y34	Z34	X35	Y35	Z35	X36	Y36	Z36	X37	Y37	Z37	X38	Y38	Z38	X39	Y39	Z39	X40	Y40	Z40	X41	Y41	Z41	X42	Y42	Z42	X43	Y43	Z43	X44	Y44	Z44	X45	Y45	Z45	X46	Y46	Z46	X47	Y47	Z47	X48	Y48	Z48	X49	Y49	Z49	X50	Y50	Z50	X51	Y51	Z51	X52	Y52	Z52	

194	1.93	204.2628631591798	895.5538940429692	292.6203613281251	290.259490966797	923.122680664063	465.4331970214846	378.3462524414064	914.9975585937505	461.645935058594	445.9976501464846	885.4943237304692	278.0305786132814	145.8705291748047	809.1543579101567	367.4744567871095	131.5237884521485	461.7443542480471	310.0478820800782	241.6608123779298	433.2386779785159	268.7884826660157	129.1955871582032	412.6719360351565	345.7769775390626	159.0901184082032	366.2383117675782	285.3261108398439	159.5467376708985	122.3893127441407	487.0511779785159	238.9772033691407	114.0143814086915	445.1274108886721	213.6997222900392	91.55965423583987	531.0935668945315	191.8558959960938	38.67167282104494	361.0376892089845	134.9256439208985	52.14920043945315	366.7020263671876	108.2286376953126	53.89263916015628	422.1678771972659	497.8098754882815	787.8746948242192	370.0682983398439	444.5652465820315	439.6149597167971	343.9069824218751	326.626678466797	437.082946777344	336.760711669922	445.6667785644534	372.1539916992189	360.678680419922	390.4455566406252	371.619598388672	301.5620727539064	381.5270385742189	63.52004241943362	395.9291687011721	297.9117126464845	83.60931396484378	365.3779296875001	324.9129943847657	25.86022567749025	440.7171020507815	307.2158813476564	24.76890373229982	253.8106384277345	369.9603576660157	36.91071701049806	247.3247528076173	416.6403808593752	23.429594039917	304.526580810547	377.9094543457032	1386.9853515625	446.4713134765627	352.4934387207032	1151.39453125	501.7107238769534	346.1649475097657	1164.224487304688	270.939178466797	365.8225097656251	1324.205932617188	318.6820678710939	261.5855102539064	1199.461303710938	508.3215637207034	282.1745910644532	1331.3720703125	492.8736877441409	173.4293975830079	1341.207885742188	418.9674377441409	189.0212402343751	1351.544067382813	378.2016601562501	90.83425140380862	1072.479858398438	411.0412292480471	165.0618743896485	1035.085571289063	435.4838562011721	115.3243713378907	1035.157592773438	441.6134338378909	118.9838562011719	854.4058227539067	284.998748779297	52.80177688598636	847.0609741210942	334.4847412109376	106.1667098999024	781.8293457031255	241.6923828125001	45.7552833557129	769.4956665039067	325.7869262695314	472.3157653808596	1182.098876953125	504.7031555175784	458.7175903320315	1308.098999023438	484.4248962402346	559.6583251953127	1299.2724609375	404.7080993652346	545.9448852539065	1306.077392578125	359.6290283203126	605.573425292969	998.4468383789067	377.3541870117189	530.9175415039065	983.0932006835942	408.0762634277346	575.9254150390627	971.1159057617192	407.3203125000002	558.6841430664065	820.1877441406255	237.4597930908204	620.5534667968752	799.8637084960942	288.8211975097657	570.6057739257815	741.5939941406252	186.5480041503907	614.7901611328127	720.786804199219	275.9442138671876	
195	1.94	204.7813873291017	895.9424438476567	289.1270446777345	290.9651794433595	922.9041137695317	462.2238464355471	378.974822998047	914.633178710938	458.3747558593752	446.5415649414065	885.1750488281255	274.6905517578126	146.2989196777344	809.3735351562505	363.8513488769532	132.4223937988282	462.0123596191409	303.5303344726564	242.6525726318361	433.9076232910159	262.6839904785157	129.8123474121094	412.4022521972659	338.4896240234376	159.9633331298829	367.0192260742189	277.4780578613282	158.6100006103516	119.2794265747071	474.4065856933596	238.3354492187501	111.2622375488282	432.9228210449221	212.5150299072267	87.34797668457034	518.0313110351565	190.8880004882813	38.4432830810547	346.6858825683595	133.9989929199219	52.23116683959964	352.4811096191407	107.165512084961	52.78645706176761	407.9319458007815	498.157165527344	787.3466796875005	366.6148681640626	444.2468261718752	439.1980895996096	340.8616027832032	326.277557373047	436.7249755859377	334.392791748047	445.3546142578127	371.7906188964845	357.8171691894532	389.8308410644534	371.0416564941407	299.070037841797	381.279754638672	63.52524185180667	395.5994567871096	297.4560852050782	83.48347473144534	364.996795654297	324.7047729492189	25.87462615966798	440.4318847656252	306.8474121093751	24.20021057128908	253.6931610107423	369.8638916015626	36.70346832275392	246.9517822265626	416.5080871582034	23.51282691955567	304.4461975097657	378.3255310058595	1386.852172851563	443.6249084472659	353.1447753906251	1151.148803710938	498.7264709472659	346.8846130371095	1164.087280273438	268.0819091796876	366.3665466308595	1324.05078125	315.8321838378907	262.1938476562501	1199.148681640625	505.3675231933596	282.6330871582032	1331.083618164063	489.9602050781252	173.8874053955079	1340.7958984375	416.0164184570315	189.4903259277344	1351.171752929688	375.262664794922	91.76904296875003	1071.877685546875	407.8956604003909	166.1278991699219	1034.6455078125	432.2400512695315	116.4393920898438	1034.700439453125	438.4855651855471	119.7173919677735	853.5242309570317	282.399871826172	53.62461090087893	846.3091430664067	332.1648864746095	106.7590332031251	780.786499023438	239.4399719238282	46.60572433471681	768.7152709960942	323.760955810547	472.8251037597659	1182.01025390625	501.954040527344	459.1794433593752	1308.033325195313	481.6636352539065	560.182312011719	1299.26220703125	402.0154113769534	546.541198730469	1306.044799804688	356.8589782714845	605.8806152343752	998.3832397460942	375.3283996582032	531.263122558594	983.2232055664067	406.143737792969	576.2618408203127	971.348754882813	405.472595214844	558.7617187500002	819.266967773438	236.5573883056642	620.766296386719	799.2393188476567	288.0985107421876	570.6729125976565	740.3018798828127	186.2761688232422	615.0261840820315	720.082702636719	275.7422485351564	
196	1.95	205.2788696289064	896.3594360351567	285.580780029297	291.6645507812501	922.6874389648442	459.0143127441409	379.594940185547	914.2741699218755	455.1031799316409	447.0631103515627	884.8646850585942	271.3539123535157	146.7186737060547	809.6223144531255	360.2305908203126	133.3243255615235	462.3002624511721	297.1654052734376	243.6407775878907	434.6074218750002	256.6695556640626	130.4819946289063	412.1444396972659	331.3804931640626	160.8267059326172	367.827117919922	269.7894897460939	157.8541717529297	116.287223815918	461.7652893066409	237.7961425781251	108.5649795532227	420.6246337890627	211.5450592041017	83.26580047607425	504.9128112792971	189.9701690673829	38.30895233154298	332.399871826172	133.1209259033204	52.42435455322268	338.3757629394532	106.2127685546876	51.80638122558597	393.8175964355471	498.4859619140627	786.831420898438	363.1795043945314	443.9435119628909	438.7919006347659	337.910125732422	325.9552307128907	436.3740539550784	332.0026855468751	445.0557861328127	371.4431152343751	355.063690185547	389.2705993652346	370.4700012207032	296.6360473632814	381.0549926757814	63.52664566040042	395.3194885253909	297.051483154297	83.36734008789065	364.6080017089845	324.5158081054689	25.89532852172853	440.1679687500002	306.5247497558595	23.71767616271973	253.6335754394532	369.7664184570314	36.50970840454103	246.6250152587892	416.3841857910159	23.58842468261719	304.3580322265626	378.7163696289064	1386.727661132813	440.7872009277346	353.7975463867189	1150.903930664063	495.7474365234377	347.5584411621095	1163.967529296875	265.2224121093751	366.865447998047	1323.909545898438	312.9939270019532	262.8011169433595	1198.831176757813	502.4407653808596	283.0810852050782	1330.795288085938	487.076843261719	174.3219146728516	1340.384887695313	413.1183776855471	189.9210662841797	1350.798950195313	372.3742980957032	92.69734954833987	1071.279418945313	404.8246154785159	167.1941986083985	1034.215209960938	429.0590820312502	117.5590896606446	1034.234497070313	435.4223327636721	120.457633972168	852.6395874023442	279.8824157714845	54.46063232421878	845.5509643554692	329.9219970703126	107.3910827636719	779.7249145507817	237.2817535400392	47.48098373413087	767.9226074218752	321.8184509277345	473.3336181640627	1181.9345703125	499.195007324219	459.6274414062502	1307.977783203125	478.8941955566409	560.6770019531252	1299.272827148438	399.2996520996096	547.1079711914065	1306.026123046875	354.0123291015626	606.1188964843752	998.3383789062505	373.3415527343751	531.518737792969	983.380004882813	404.187927246094	576.523620605469	971.6269531250005	403.6622619628909	558.7852783203127	818.273315429688	235.7972717285157	620.9368286132815	798.581909179688	287.572723388672	570.7154541015627	738.890075683594	186.2508392333985	615.2283325195315	719.3345336914065	275.8094482421876	
197	1.96	205.7599639892579	896.7935180664067	281.9968261718751	292.3481445312501	922.470825195313	455.8056945800784	380.1987609863282	913.9197387695317	451.834655761719	447.5660705566409	884.5629272460942	268.0341796875001	147.1271057128907	809.8937988281255	356.6089782714845	134.2184600830079	462.6008911132815	290.9544372558595	244.6153259277345	435.3364868164065	250.7420806884767	131.1945953369141	411.890075683594	324.4478759765626	161.6727447509766	368.6569213867189	262.2534484863282	157.2879333496094	113.4125976562501	449.124694824219	237.3619079589845	105.950782775879	408.2313537597659	210.7881927490236	79.31624603271487	491.7432556152346	189.1259002685547	38.26876449584962	318.1767578125001	132.3160552978516	52.70936965942386	324.379119873047	105.386833190918	50.93247222900393	379.813201904297	498.7977600097659	786.3336791992192	359.7717285156251	443.6668701171877	438.399841308594	335.0723876953126	325.6692504882814	436.0341796875002	329.5955810546876	444.7813720703127	371.1138916015626	352.4371337890626	388.7764892578127	369.9083862304689	294.278289794922	380.8554077148439	63.52606964111331	395.0852661132815	296.7037353515626	83.26037597656253	364.2088928222657	324.3507080078126	25.92623901367189	439.930114746094	306.2476806640626	23.31822013854981	253.6237030029298	369.666717529297	36.32944869995119	246.343719482422	416.2692565917971	23.655912399292	304.2583618164064	379.083465576172	1386.609497070313	437.955261230469	354.4485168457032	1150.659301757813	492.7728576660159	348.188446044922	1163.861450195313	262.3561401367189	367.3208923339845	1323.779052734375	310.1651916503907	263.4067687988282	1198.507690429688	499.5401916503909	283.5193481445314	1330.505981445313	484.2210388183596	174.733627319336	1339.971923828125	410.2700195312502	190.3129119873047	1350.42138671875	369.5329589843751	93.61683654785159	1070.685302734375	401.8331604003909	168.2560119628907	1033.791625976563	425.9474182128909	118.6784744262696	1033.760864257813	432.4274597167971	121.2030334472657	851.7557983398442	277.4427185058595	55.3081970214844	844.7885131835942	327.7479858398439	108.0613632202149	778.6526489257817	235.2075195312501	48.37620925903323	767.1216430664065	319.945770263672	473.842224121094	1181.87060546875	496.4246520996096	460.0633544921877	1307.929931640625	476.1121520996096	561.144226074219	1299.29931640625	396.5559082031252	547.6445312500002	1306.017456054688	351.1011047363282	606.294860839844	998.308227539063	371.3907775878907	531.6878662109377	983.555541992188	402.1999206542971	576.7166137695315	971.9399414062505	401.8813476562502	558.7612915039065	817.2084350585942	235.1756744384767	621.0687255859377	797.8941040039067	287.2301635742189	570.7359619140627	737.365905761719	186.4579620361329	615.3975830078127	718.5458984375002	276.1295166015626	
